HIERARCHY
ROOT Hips
{
     OFFSET 1.88212 96.90440 -13.34250
     CHANNELS 6 Xposition Yposition Zposition Zrotation Xrotation Yrotation
     JOINT Spine
     {
          OFFSET 0.00000 11.89050 0.00000
          CHANNELS 3 Zrotation Xrotation Yrotation
          JOINT Spine1
          {
               OFFSET -0.00000 25.65740 0.12766
               CHANNELS 3 Zrotation Xrotation Yrotation
               JOINT HEad
               {
                    OFFSET 0.00000 8.73416 0.01134
                    CHANNELS 3 Zrotation Xrotation Yrotation
                    End Site
                    {
                         OFFSET -0.29000 12.77420 2.51395
                    }
               }
               JOINT LeftShoulder1
               {
                    OFFSET 8.99000 -0.36225 -0.22000
                    CHANNELS 3 Zrotation Xrotation Yrotation
                    JOINT LeftArm
                    {
                         OFFSET 10.28270 -0.00338 0.32212
                         CHANNELS 3 Zrotation Xrotation Yrotation
                         JOINT LeftForeArm
                         {
                              OFFSET 32.76690 0.09914 -1.42434
                              CHANNELS 3 Zrotation Xrotation Yrotation
                              JOINT LeftHand
                              {
                                   OFFSET 27.56430 0.08536 1.02216
                                   CHANNELS 3 Zrotation Xrotation Yrotation
                                   End Site
                                   {
                                        OFFSET 16.74430 -0.60000 1.50291
                                   }
                              }
                         }
                    }
               }
               JOINT RightShoulder
               {
                    OFFSET -8.99000 -0.36225 -0.22000
                    CHANNELS 3 Zrotation Xrotation Yrotation
                    JOINT RightArm
                    {
                         OFFSET -10.28270 -0.00338 0.32212
                         CHANNELS 3 Zrotation Xrotation Yrotation
                         JOINT RightForeArm
                         {
                              OFFSET -32.89710 0.09914 -1.42434
                              CHANNELS 3 Zrotation Xrotation Yrotation
                              JOINT RightHand
                              {
                                   OFFSET -27.49210 0.08536 1.02216
                                   CHANNELS 3 Zrotation Xrotation Yrotation
                                   End Site
                                   {
                                        OFFSET -16.63120 -0.60000 1.50291
                                   }
                              }
                         }
                    }
               }
          }
     }
     JOINT LeftUpLeg
     {
          OFFSET 8.94580 -8.66707 0.10165
          CHANNELS 3 Zrotation Xrotation Yrotation
          JOINT LeftLeg
          {
               OFFSET 0.00000 -44.42270 1.37270
               CHANNELS 3 Zrotation Xrotation Yrotation
               JOINT LeftFoot
               {
                    OFFSET -0.25355 -42.09240 -1.46059
                    CHANNELS 3 Zrotation Xrotation Yrotation
                    JOINT LeftToes
                    {
                         OFFSET -0.04000 -4.41509 8.49910
                         CHANNELS 3 Zrotation Xrotation Yrotation
                         End Site
                         {
                              OFFSET 0.08000 -0.04745 9.77979
                         }
                    }
               }
          }
     }
     JOINT RightUpLeg
     {
          OFFSET -8.94580 -8.66707 0.10165
          CHANNELS 3 Zrotation Xrotation Yrotation
          JOINT RightLeg
          {
               OFFSET 0.00000 -44.42270 1.37270
               CHANNELS 3 Zrotation Xrotation Yrotation
               JOINT RightFoot
               {
                    OFFSET 0.25355 -42.09240 -1.46059
                    CHANNELS 3 Zrotation Xrotation Yrotation
                    JOINT RightToes
                    {
                         OFFSET 0.04000 -4.41509 8.49910
                         CHANNELS 3 Zrotation Xrotation Yrotation
                         End Site
                         {
                              OFFSET -0.08000 -0.13745 9.77979
                         }
                    }
               }
          }
     }
}
MOTION
Frames: 15
Frame Time: 0.01667
5.52256 93.09096 -39.99867 10.02978 14.00010 143.80276 -18.00229 29.46918 18.07424 -0.01068 0.00233 -0.01136 -6.84252 18.01162 6.59772 3.43257 3.22863 -10.77645 -148.80882 -70.62929 -124.15611 -29.64340 65.89972 -86.74016 14.76147 3.28153 -6.96512 18.26195 3.49182 -7.81267 79.49630 5.97422 69.83598 7.15870 25.32388 90.55966 17.48063 12.06883 12.35279 18.71785 4.97541 -11.37798 -22.84600 17.55885 51.49252 -27.21471 -0.11978 -0.05352 26.09824 -10.89963 -45.97630 -24.95757 8.99967 25.44937 28.65339 -1.50711 -47.07793 -22.27268 0.00317 -0.00582 7.75234 -12.69774 11.09451 
5.01041 93.32312 -40.29289 9.41703 13.60151 144.41267 -16.27850 29.20311 15.42379 -0.01241 0.00692 -0.00627 -10.18390 23.54915 8.27456 2.20738 3.91029 -9.72422 -151.57361 -70.25602 -127.69299 -22.85159 67.64760 -93.14768 17.04499 5.81351 -6.92681 17.30298 4.12889 -7.13335 79.35187 5.97290 69.92595 6.28193 25.32711 91.03822 17.20995 12.26400 13.87852 16.74514 3.96631 -13.56222 -20.64701 17.82827 47.51071 -28.67860 -0.07356 -0.04372 27.25226 -11.13545 -40.38190 -24.48281 9.70630 25.14328 26.34155 -3.01534 -47.71247 -21.79488 0.00309 -0.00497 7.57614 -11.96850 11.43105 
4.41525 93.50738 -40.72437 8.89630 13.14954 144.93689 -14.49712 28.54611 12.56948 -0.01363 0.01160 -0.00143 -13.71497 28.49427 10.45755 0.92424 4.85449 -8.43108 -153.32516 -69.90738 -130.03305 -19.41343 68.20194 -96.29463 17.81488 -0.45800 -5.34191 16.37876 5.10858 -6.21919 79.30769 5.83732 70.06575 5.47375 25.42891 91.49204 17.10605 12.17518 12.32092 15.00297 3.11702 -15.56921 -18.94571 18.03805 44.75866 -29.76285 -0.03998 -0.03065 28.27242 -11.75195 -36.09679 -24.17367 10.27676 24.76263 24.44052 -4.31407 -48.31661 -21.33652 0.00304 -0.00423 7.41694 -11.35776 11.85831 
3.75655 93.63773 -41.29045 8.46497 12.66112 145.36697 -12.77202 27.54127 9.65441 -0.01423 0.01596 0.00285 -17.42144 32.79396 13.09648 -0.35474 6.00209 -6.94413 -154.20444 -69.60548 -131.29256 -18.04162 68.21315 -97.41826 18.26019 2.39948 -5.77420 15.50421 6.37399 -5.12770 79.34902 5.58338 70.22835 4.72047 25.59057 91.96056 16.90668 12.30352 13.09682 13.50929 2.37325 -17.37421 -17.71274 18.19101 43.10004 -30.49436 -0.01834 -0.01978 29.20733 -12.61831 -32.95982 -24.02849 10.72857 24.32813 22.95093 -5.39677 -48.84682 -20.88757 0.00299 -0.00353 7.28952 -10.87197 12.35741 
3.04702 93.71896 -41.96804 8.11288 12.15691 145.70262 -11.34826 26.60789 7.10390 -0.01324 0.01599 0.00399 -20.88958 36.15961 15.66810 -1.45269 6.93751 -5.55058 -154.33540 -69.35380 -131.62643 -17.76064 67.90131 -97.43886 18.24828 -0.20207 -5.20219 14.81364 7.44941 -4.06197 79.44812 5.23775 70.39755 4.02315 25.78567 92.41441 16.71597 12.17081 12.10802 12.33835 1.74309 -18.96317 -17.55561 17.61136 44.58369 -30.01540 0.00921 -0.01797 29.47317 -13.52449 -32.98380 -24.04531 11.06984 23.85425 21.86519 -6.26568 -49.27098 -20.44896 0.00294 -0.00281 7.20679 -10.50646 12.92543 
2.29406 93.76424 -42.72148 7.82649 11.65730 145.94835 -10.19224 25.77263 4.89170 -0.01208 0.01544 0.00454 -23.99524 38.68630 18.05147 -2.36893 7.68843 -4.25336 -153.85214 -69.14237 -131.20868 -17.92694 67.40376 -97.01596 18.11959 2.16208 -5.71025 14.29408 8.35717 -3.04946 79.58228 4.81755 70.55649 3.38794 25.99650 92.90437 16.60019 12.20564 12.53537 11.52844 1.23206 -20.32493 -18.11878 16.57349 48.48315 -28.78549 -0.01473 -0.02572 28.98188 -14.50342 -35.63836 -24.21885 11.29752 23.35042 21.16690 -6.92806 -49.56639 -20.02863 0.00289 -0.00208 7.17600 -10.23660 13.55321 
1.50636 93.78843 -43.51266 7.59357 11.17811 146.11029 -9.27333 25.05620 2.99275 -0.01078 0.01484 0.00498 -25.23755 39.37830 19.08292 -3.10245 8.27866 -3.04969 -152.89226 -68.95238 -130.21774 -18.23326 66.77827 -96.46154 17.87350 1.22396 -5.52737 13.92477 9.11634 -2.09089 79.74124 4.32685 70.70886 2.81728 26.20484 93.41354 16.45030 12.06891 11.92824 11.07242 0.84669 -21.45109 -19.13617 15.12331 54.22265 -27.03411 -0.05699 -0.03952 27.69455 -15.58700 -40.45929 -24.53621 11.40263 22.82230 20.82970 -7.39384 -49.71527 -19.63578 0.00283 -0.00145 7.19239 -10.02681 14.21334 
0.70427 93.80206 -44.30737 7.40878 10.72835 146.19284 -8.55684 24.47000 1.38475 -0.00941 0.01408 0.00524 -24.77001 38.53322 18.93348 -3.66001 8.73026 -1.93747 -151.59467 -68.76401 -128.82037 -18.52199 66.09129 -95.97028 17.60403 3.01335 -5.93547 13.68532 9.74313 -1.19856 79.91731 3.78656 70.86169 2.29805 26.39997 93.97120 16.42238 12.09225 12.14654 10.86746 0.55176 -22.33786 -19.96302 14.02507 59.12864 -25.74310 -0.04850 -0.01297 26.30868 -16.81070 -44.82660 -24.97055 11.38032 22.27448 20.81774 -7.67373 -49.70148 -19.27684 0.00277 -0.00096 7.23311 -9.85198 14.86162 
-0.08587 93.81093 -45.07964 7.27254 10.31149 146.19978 -8.00722 24.01712 0.04821 -0.00806 0.01328 0.00538 -22.94349 36.33417 17.97772 -4.04972 9.06267 -0.91657 -150.11610 -68.56210 -127.20294 -18.77336 65.38075 -95.58253 17.32863 2.83523 -5.87001 13.55840 10.25087 -0.37067 80.10693 3.21174 71.02885 1.80760 26.57179 94.56712 16.34935 12.01751 11.74235 10.82084 0.30565 -22.98848 -20.75659 13.15038 63.30220 -24.70300 -0.03525 -0.00587 24.92922 -18.03443 -48.69583 -25.48378 11.23600 21.71096 21.08860 -7.77709 -49.51056 -18.95270 0.00269 -0.00063 7.26078 -9.70031 15.46258 
-0.84440 93.83332 -45.82126 7.19184 9.92999 146.14191 -7.58380 23.69487 -1.04265 -0.00675 0.01246 0.00537 -21.18953 34.14242 17.17601 -4.29274 9.29852 0.01265 -148.61890 -68.33630 -125.55167 -18.99386 64.70116 -95.31947 17.06692 4.16777 -6.13531 13.52936 10.65690 0.38955 80.30683 2.62398 71.21625 1.31679 26.71996 95.21844 16.39333 12.05279 11.81200 10.86760 0.08619 -23.42077 -21.55689 12.42480 66.80312 -23.80863 -0.02670 -0.00254 23.62283 -19.21272 -52.08297 -26.01805 10.91413 21.12902 23.96539 -6.09568 -48.53221 -19.86402 0.11700 0.03392 7.87325 -12.28477 14.98442 
-1.54845 93.87872 -46.52538 7.17269 9.58408 146.03453 -7.25077 23.49429 -1.91498 -0.00553 0.01171 0.00530 -19.52749 31.99649 16.52153 -4.40817 9.46018 0.85461 -147.23846 -68.07792 -124.02225 -19.20904 64.08582 -95.15822 16.84295 4.34535 -6.08429 13.57623 10.97979 1.08500 80.52594 2.04054 71.43114 0.80461 26.84484 95.91531 16.38498 12.00259 11.51136 10.97322 -0.11154 -23.66007 -22.35732 11.81644 69.67941 -23.01804 -0.02051 -0.00026 22.43137 -20.32041 -55.00052 -26.61481 10.37394 20.54029 26.21448 -4.77373 -47.64095 -20.76713 0.01900 -0.00762 8.49900 -13.60727 14.79372 
-2.18936 93.95800 -47.18537 7.21877 9.27182 145.89647 -6.97775 23.40296 -2.59624 -0.00445 0.01100 0.00518 -17.97052 29.93348 16.00219 -4.41737 9.56740 1.61868 -146.04785 -67.77705 -122.70288 -19.41480 63.56261 -95.09814 16.66383 5.36228 -6.22062 13.67575 11.23602 1.70843 80.77695 1.48531 71.67738 0.25989 26.95279 96.66301 16.46090 12.00034 11.47786 11.12571 -0.28297 -23.73506 -23.13540 11.31269 71.97316 -22.31787 -0.01544 0.00135 21.37846 -21.33392 -57.47043 -27.24551 9.62690 19.94406 30.03883 -2.10209 -46.26929 -21.84584 0.11431 0.02750 8.76483 -16.72397 13.76862 
-2.76362 94.07578 -47.79468 7.33099 8.99059 145.74962 -6.74011 23.40772 -3.11387 -0.00359 0.01035 0.00507 -16.52565 27.98658 15.60044 -4.34303 9.63420 2.31681 -145.05339 -67.42319 -121.61649 -19.59808 63.13428 -95.12957 16.53931 5.68603 -6.14384 13.81226 11.43683 2.25236 81.06586 0.97464 71.95865 -0.31371 27.04797 97.45046 16.47943 11.92071 11.21565 11.32606 -0.41933 -23.67570 -23.86386 10.90585 73.72211 -21.70369 -0.01114 0.00237 20.47826 -22.22495 -59.51212 -27.93162 8.64582 19.34488 34.43887 1.33611 -44.72436 -23.55764 0.12652 0.00719 9.27845 -20.15187 12.13540 
-3.27002 94.22524 -48.34668 7.50406 8.73768 145.61560 -6.52227 23.49259 -3.49218 -0.00289 0.00969 0.00500 -15.19533 26.18315 15.29477 -4.20880 9.66941 2.95953 -144.21141 -67.00623 -120.73179 -19.73240 62.79600 -95.25577 16.46305 6.44807 -6.15996 13.98154 11.58972 2.70838 81.38613 0.51747 72.27334 -0.90780 27.13611 98.27409 16.54824 11.86498 11.09699 11.57756 -0.51409 -23.50786 -24.51571 10.58891 74.96040 -21.17155 -0.00756 0.00292 19.73637 -22.96513 -61.14318 -28.66450 7.44061 18.74270 39.04877 5.25910 -43.22433 -25.38245 0.13308 0.00417 9.54905 -23.70218 10.12143 
-3.70871 94.39039 -48.83482 7.72675 8.51115 145.51367 -6.31744 23.63951 -3.75191 -0.00244 0.00911 0.00491 -13.97919 24.54343 15.06178 -4.03381 9.67882 3.54782 -143.46793 -66.52039 -120.00259 -19.79576 62.52854 -95.46969 16.42376 6.76989 -6.02470 14.18058 11.70038 3.07716 81.72829 0.10926 72.62077 -1.51244 27.21725 99.11986 16.55848 11.76932 10.84376 11.87904 -0.56573 -23.25132 -25.06742 10.35491 75.72066 -20.71461 -0.00473 0.00307 19.14909 -23.53747 -62.38553 -29.42426 6.03950 18.13786 43.59425 9.43535 -41.90228 -27.55395 0.14639 0.00214 9.87232 -27.00162 7.71718 
